<?xml version="1.0" standalone="no"?>
<!DOCTYPE svg PUBLIC "-//W3C//DTD SVG 20010904//EN"
 "http://www.w3.org/TR/2001/REC-SVG-20010904/DTD/svg10.dtd">
<svg version="1.0" xmlns="http://www.w3.org/2000/svg"
 width="1280.000000pt" height="1000.000000pt" viewBox="0 0 1280.000000 1000.000000"
 preserveAspectRatio="xMidYMid meet">
<metadata>
Created by potrace 1.15, written by Peter Selinger 2001-2017
</metadata>
<g transform="translate(0.000000,1000.000000) scale(0.100000,-0.100000)"
fill="#000000" stroke="none">
<path d="M3505 7498 c-35 -27 -71 -108 -86 -192 l-11 -66 -124 0 c-142 0 -178
-10 -217 -62 -36 -47 -74 -152 -92 -255 -23 -131 -23 -3715 0 -3846 18 -103
56 -208 92 -255 51 -67 -242 -62 3452 -60 l3360 3 31 30 c39 38 74 109 102
210 22 79 22 88 28 1040 3 528 2 1390 -1 1915 -6 942 -6 956 -27 1034 -26 95
-77 191 -116 220 l-27 21 -2585 3 -2584 2 -4 23 c-3 12 -8 40 -11 62 -9 56
-49 140 -81 170 l-27 25 -522 0 c-521 0 -522 0 -550 -22z"/>
</g>
</svg>
